C:\Users\israe\Dropbox\PhDWork\ExperimentalData\subject14\055\P14S055W04_filtered35.mot
nRows=15
nColumns=28

name C:\Users\israe\Dropbox\PhDWork\ExperimentalData\subject14\055\P14S055W04_filtered35.mot
datacolumns 28
datarows 15
range 0.7920000000 0.8060000000
endheader
time	ground_force_1_vx	ground_force_1_vy	ground_force_1_vz	ground_force_1_px	ground_force_1_py	ground_force_1_pz	ground_moment_1_mx	ground_moment_1_my	ground_moment_1_mz	ground_force_2_vx	ground_force_2_vy	ground_force_2_vz	ground_force_2_px	ground_force_2_py	ground_force_2_pz	ground_moment_2_mx	ground_moment_2_my	ground_moment_2_mz	ground_force_3_vx	ground_force_3_vy	ground_force_3_vz	ground_force_3_px	ground_force_3_py	ground_force_3_pz	ground_moment_3_mx	ground_moment_3_my	ground_moment_3_mz
        0.7920000000	       -6.7004987324	       65.8200762036	      -12.8010610461	        0.1988394955	        0.0000558755	       -0.3004071329	      -16.4083162326	       -2.6397405651	       -1.4397130415	        0.0000000000	        0.0000000000	        0.0000000000	        0.2029003516	       -0.0000795827	        0.4543649445	        0.0000000000	        0.0000000000	        0.0000000000	        0.0000000000	        0.0000000000	        0.0000000000	        0.2076431971	        0.0000770316	        1.3583900146	        0.0000000000	        0.0000000000	        0.0000000000	
        0.7930000000	       -6.7209476605	       65.3157202340	      -12.5547860025	        0.1988394955	        0.0000558755	       -0.3004071329	      -16.2763466242	       -2.6383530034	       -1.4319121752	        0.0000000000	        0.0000000001	        0.0000000000	        0.2029003516	       -0.0000795827	        0.4543649445	        0.0000000000	        0.0000000000	        0.0000000000	        0.0000000000	        0.0000000000	        0.0000000000	        0.2076431971	        0.0000770316	        1.3583900146	        0.0000000000	        0.0000000000	        0.0000000000	
        0.7940000000	       -6.7411079889	       64.8197390890	      -12.3089985803	        0.1988394955	        0.0000558755	       -0.3004071329	      -16.1459608930	       -2.6365056691	       -1.4250532318	        0.0000000000	        0.0000000001	        0.0000000000	        0.2029003516	       -0.0000795827	        0.4543649445	        0.0000000000	       -0.0000000000	        0.0000000000	        0.0000000000	        0.0000000000	        0.0000000000	        0.2076431971	        0.0000770316	        1.3583900146	        0.0000000000	        0.0000000000	        0.0000000000	
        0.7950000000	       -6.7605529640	       64.3310204953	      -12.0664160177	        0.1988394955	        0.0000558755	       -0.3004071329	      -16.0169901010	       -2.6345280125	       -1.4193415588	        0.0000000000	        0.0000000002	        0.0000000001	        0.2029003516	       -0.0000795827	        0.4543649445	        0.0000000000	       -0.0000000000	        0.0000000000	        0.0000000000	        0.0000000000	        0.0000000000	        0.2076431971	        0.0000770316	        1.3583900146	        0.0000000000	        0.0000000000	        0.0000000000	
        0.7960000000	       -6.7793256176	       63.8421980999	      -11.8300174861	        0.1988394955	        0.0000558755	       -0.3004071329	      -15.8893229865	       -2.6328119529	       -1.4146046010	        0.0000000000	        0.0000000002	        0.0000000001	        0.2029003516	       -0.0000795827	        0.4543649445	        0.0000000000	       -0.0000000000	        0.0000000000	        0.0000000000	        0.0000000000	        0.0000000000	        0.2076431971	        0.0000770316	        1.3583900146	        0.0000000000	        0.0000000000	        0.0000000000	
        0.7970000000	       -6.7975596083	       63.3431416193	      -11.6020975729	        0.1988394955	        0.0000558755	       -0.3004071329	      -15.7629683284	       -2.6317612268	       -1.4102910785	        0.0000000000	        0.0000000003	        0.0000000001	        0.2029003516	       -0.0000795827	        0.4543649445	        0.0000000000	       -0.0000000000	        0.0000000000	        0.0000000000	        0.0000000000	        0.0000000000	        0.2076431971	        0.0000770316	        1.3583900146	        0.0000000000	        0.0000000000	        0.0000000000	
        0.7980000000	       -6.8148198169	       62.8249671552	      -11.3836728240	        0.1988394955	        0.0000558755	       -0.3004071329	      -15.6380788325	       -2.6316719885	       -1.4056939962	        0.0000000000	        0.0000000004	        0.0000000002	        0.2029003516	       -0.0000795827	        0.4543649445	        0.0000000000	       -0.0000000000	        0.0000000000	        0.0000000000	        0.0000000000	        0.0000000000	        0.2076431971	        0.0000770316	        1.3583900146	        0.0000000000	        0.0000000000	        0.0000000000	
        0.7990000000	       -6.8302469782	       62.2823122124	      -11.1748334449	        0.1988394955	        0.0000558755	       -0.3004071329	      -15.5146807512	       -2.6327239895	       -1.4002238585	        0.0000000000	        0.0000000005	        0.0000000002	        0.2029003516	       -0.0000795827	        0.4543649445	        0.0000000000	       -0.0000000000	        0.0000000000	       -0.0000000000	        0.0000000000	        0.0000000000	        0.2076431971	        0.0000770316	        1.3583900146	        0.0000000000	        0.0000000000	        0.0000000000	
        0.8000000000	       -6.8432823919	       61.7141763037	      -10.9753603458	        0.1988394955	        0.0000558755	       -0.3004071329	      -15.3923635782	       -2.6350539143	       -1.3936960108	        0.0000000000	        0.0000000006	        0.0000000003	        0.2029003516	       -0.0000795827	        0.4543649445	        0.0000000000	       -0.0000000000	        0.0000000001	       -0.0000000000	        0.0000000000	        0.0000000000	        0.2076431971	        0.0000770316	        1.3583900146	        0.0000000000	       -0.0000000000	       -0.0000000000	
        0.8010000000	       -6.8541761639	       61.1233564616	      -10.7848068848	        0.1988394955	        0.0000558755	       -0.3004071329	      -15.2704225407	       -2.6387014570	       -1.3863532141	        0.0000000001	        0.0000000006	        0.0000000003	        0.2029003516	       -0.0000795827	        0.4543649445	        0.0000000000	       -0.0000000000	        0.0000000001	       -0.0000000000	        0.0000000000	       -0.0000000000	        0.2076431971	        0.0000770316	        1.3583900146	       -0.0000000000	       -0.0000000000	       -0.0000000000	
        0.8020000000	       -6.8638988098	       60.5146132125	      -10.6019841917	        0.1988394955	        0.0000558755	       -0.3004071329	      -15.1482645872	       -2.6434744273	       -1.3785747497	        0.0000000001	        0.0000000007	        0.0000000003	        0.2029003516	       -0.0000795827	        0.4543649445	        0.0000000000	       -0.0000000000	        0.0000000001	       -0.0000000000	        0.0000000000	       -0.0000000000	        0.2076431971	        0.0000770316	        1.3583900146	       -0.0000000000	       -0.0000000000	       -0.0000000000	
        0.8030000000	       -6.8737158437	       59.8942410058	      -10.4247201974	        0.1988394955	        0.0000558755	       -0.3004071329	      -15.0255099796	       -2.6489210202	       -1.3706928452	        0.0000000001	        0.0000000007	        0.0000000003	        0.2029003516	       -0.0000795827	        0.4543649445	        0.0000000000	       -0.0000000000	        0.0000000001	       -0.0000000000	        0.0000000000	       -0.0000000000	        0.2076431971	        0.0000770316	        1.3583900146	       -0.0000000000	       -0.0000000000	       -0.0000000000	
        0.8040000000	       -6.8846471971	       59.2707607400	      -10.2506049627	        0.1988394955	        0.0000558755	       -0.3004071329	      -14.9018730601	       -2.6544239827	       -1.3630791369	        0.0000000001	        0.0000000007	        0.0000000003	        0.2029003516	       -0.0000795827	        0.4543649445	        0.0000000000	       -0.0000000000	        0.0000000001	       -0.0000000000	        0.0000000000	       -0.0000000000	        0.2076431971	        0.0000770316	        1.3583900146	       -0.0000000000	       -0.0000000000	       -0.0000000000	
        0.8050000000	       -6.8968630424	       58.6536272450	      -10.0779290967	        0.1988394955	        0.0000558755	       -0.3004071329	      -14.7771734085	       -2.6593385029	       -1.3562182520	        0.0000000001	        0.0000000006	        0.0000000003	        0.2029003516	       -0.0000795827	        0.4543649445	        0.0000000000	       -0.0000000000	        0.0000000001	       -0.0000000000	        0.0000000000	       -0.0000000000	        0.2076431971	        0.0000770316	        1.3583900146	       -0.0000000000	       -0.0000000000	       -0.0000000000	
        0.8060000000	       -6.9095793412	       58.0505453502	       -9.9057963192	        0.1988394955	        0.0000558755	       -0.3004071329	      -14.6513665842	       -2.6631029191	       -1.3505639178	        0.0000000000	        0.0000000004	        0.0000000002	        0.2029003516	       -0.0000795827	        0.4543649445	        0.0000000000	       -0.0000000000	        0.0000000000	       -0.0000000000	        0.0000000000	       -0.0000000000	        0.2076431971	        0.0000770316	        1.3583900146	       -0.0000000000	       -0.0000000000	       -0.0000000000	
